<svg xmlns="http://www.w3.org/2000/svg" xmlns:xlink="http://www.w3.org/1999/xlink" version="1.1" x="0px" y="0px" viewBox="0 0 100 125" style="enable-background:new 0 0 100 100;" xml:space="preserve"><path d="M90.6,69.4H9.5c-2.2,0-4-1.8-4-4V12.6c0-2.2,1.8-4,4-4h81.1c2.2,0,4,1.8,4,4v52.8C94.5,67.6,92.8,69.4,90.6,69.4z M9.5,10.6  c-1.1,0-2,0.9-2,2v52.8c0,1.1,0.9,2,2,2h81.1c1.1,0,2-0.9,2-2V12.6c0-1.1-0.9-2-2-2H9.5z"/><path d="M64.2,82.1H35.8V67.4h28.4V82.1z M37.8,80.1h24.4V69.4H37.8V80.1z"/><path d="M79,91.4H18.4c-2.1,0-3.8-1.8-3.8-4v-3.3c0-2.2,1.7-4,3.8-4H79c2.1,0,3.8,1.8,3.8,4v3.3C82.8,89.6,81.1,91.4,79,91.4z   M18.4,82.1c-1,0-1.8,0.9-1.8,2v3.3c0,1.1,0.8,2,1.8,2H79c1,0,1.8-0.9,1.8-2v-3.3c0-1.1-0.8-2-1.8-2H18.4z"/><path d="M93.5,57.6H6.5c-0.6,0-1-0.4-1-1s0.4-1,1-1h87.1c0.6,0,1,0.4,1,1S94.1,57.6,93.5,57.6z"/><path d="M53.1,63.5h-7.2c-0.6,0-1-0.4-1-1s0.4-1,1-1h7.2c0.6,0,1,0.4,1,1S53.7,63.5,53.1,63.5z"/><text x="0" y="115" fill="#000000" font-size="5px" font-weight="bold" font-family="'Helvetica Neue', Helvetica, Arial-Unicode, Arial, Sans-serif">Created by Deuxamis_moon</text><text x="0" y="120" fill="#000000" font-size="5px" font-weight="bold" font-family="'Helvetica Neue', Helvetica, Arial-Unicode, Arial, Sans-serif">from the Noun Project</text></svg>